<svg width="111" height="20" viewBox="0 0 111 20" fill="none" xmlns="http://www.w3.org/2000/svg">
<path d="M3.24219 1.07031H6.30078L10.3789 14.3125L11.0703 17.1719L11.7383 14.3008L15.6758 1.07031H18.5938L21.4883 19H19.4961L17.3164 5.45312L16.9883 2.28906L16.2734 5.47656L12.2305 18.9883H9.92188L5.70312 5.40625L4.87109 2.28906L4.47266 5.42969L2.49219 19H0.476562L3.24219 1.07031ZM25.8125 1.07031H35.9727V2.80469H27.8047V8.99219H34.3906V10.7148H27.8047V17.2773H36.2891V19H25.8125V1.07031ZM41.9844 2.80469H37.2031V1.07031H48.9219V2.80469H43.9766V19H41.9844V2.80469ZM55.5078 1.07031H58.2383L64.5078 19H62.3867L60.6055 13.7383H53.3867L51.6992 19H49.6367L55.5078 1.07031ZM60.043 12.0625L56.8789 2.65234L56.5156 3.98828L53.9258 12.0625H60.043ZM71.5508 9.83594L65.8438 1.07031H68.1172L72.7578 8.48828L77.293 1.07031H79.5781L73.9883 9.78906L80.1992 19H77.8203L72.793 11.2539L68.082 19H65.8438L71.5508 9.83594ZM89.6445 19.2344C86.8633 19.2344 85.0273 18.3594 84.1367 16.6094C83.6133 15.5938 83.3047 14.2383 83.2109 12.543C83.1719 11.7461 83.1523 10.8789 83.1523 9.94141C83.1523 9.00391 83.1797 8.11719 83.2344 7.28125C83.2891 6.4375 83.3945 5.67578 83.5508 4.99609C83.7148 4.31641 83.9414 3.71875 84.2305 3.20312C84.5273 2.67969 84.9141 2.24219 85.3906 1.89062C86.375 1.1875 87.793 0.835938 89.6445 0.835938H90.3711C93.2695 0.835938 95.125 1.61719 95.9375 3.17969C96.4453 4.15625 96.7305 5.51562 96.793 7.25781C96.8242 8.10938 96.8398 9.01172 96.8398 9.96484C96.8398 10.9102 96.8164 11.7852 96.7695 12.5898C96.7227 13.3867 96.625 14.125 96.4766 14.8047C96.3281 15.4844 96.1094 16.0977 95.8203 16.6445C95.5391 17.1914 95.1562 17.6562 94.6719 18.0391C93.6719 18.8359 92.2383 19.2344 90.3711 19.2344H89.6445ZM90.3477 17.5469C91.207 17.5469 91.918 17.4531 92.4805 17.2656C93.0508 17.0781 93.5 16.75 93.8281 16.2812C94.4375 15.4141 94.7422 13.75 94.7422 11.2891V10.0234C94.7422 8.84375 94.7109 7.79297 94.6484 6.87109C94.5859 5.94922 94.418 5.17188 94.1445 4.53906C93.582 3.22656 92.3633 2.57031 90.4883 2.57031H89.5039C87.5977 2.57031 86.3789 3.18359 85.8477 4.41016C85.5117 5.19141 85.3281 6.11328 85.2969 7.17578C85.2656 8.23828 85.25 9.1875 85.25 10.0234V11.2891C85.25 13.5938 85.5938 15.2188 86.2812 16.1641C86.9453 17.0859 88.0664 17.5469 89.6445 17.5469H90.3477ZM103.883 2.80469H99.1016V1.07031H110.82V2.80469H105.875V19H103.883V2.80469Z" fill="url(#paint0_linear_6_36)"/>
<defs>
<linearGradient id="paint0_linear_6_36" x1="114.5" y1="-4.00002" x2="-12.5" y2="50" gradientUnits="userSpaceOnUse">
<stop stop-color="white" stop-opacity="0.6"/>
<stop offset="0.421554" stop-color="#C822E2"/>
<stop offset="1" stop-color="#00D1FF"/>
</linearGradient>
</defs>
</svg>
