<svg width="68" height="65" viewBox="0 0 68 65" fill="none" xmlns="http://www.w3.org/2000/svg">
<circle cx="11.6595" cy="15.9041" r="2.07447" fill="#D9D9D9"/>
<circle cx="6.12757" cy="21.4363" r="2.07447" fill="#D9D9D9"/>
<circle cx="58.6808" cy="14.5212" r="2.07447" fill="#D9D9D9"/>
<path d="M13.0425 15.9045H39.6648L51.4201 2.42041H57.2978" stroke="#D9D9D9" stroke-width="2"/>
<circle cx="58.6808" cy="8.2981" r="2.07447" fill="#D9D9D9"/>
<circle cx="58.6808" cy="2.07447" r="2.07447" fill="#D9D9D9"/>
<path d="M7.85632 21.4362H41.3936L54.5319 8.29785H58.335" stroke="#D9D9D9" stroke-width="2"/>
<path d="M-7.35645 26.9683H43.468L55.9148 14.5215H57.2978" stroke="#D9D9D9" stroke-width="2"/>
<circle cx="2.07447" cy="2.07447" r="2.07447" transform="matrix(1 0 0 -1 9.58502 51.1704)" fill="#D9D9D9"/>
<circle cx="2.07447" cy="2.07447" r="2.07447" transform="matrix(1 0 0 -1 4.0531 45.6382)" fill="#D9D9D9"/>
<circle cx="2.07447" cy="2.07447" r="2.07447" transform="matrix(1 0 0 -1 56.6063 52.5532)" fill="#D9D9D9"/>
<path d="M13.0425 49.0955H39.6648L51.4201 62.5796H57.2978" stroke="#D9D9D9" stroke-width="2"/>
<circle cx="2.07447" cy="2.07447" r="2.07447" transform="matrix(1 0 0 -1 56.6063 58.7764)" fill="#D9D9D9"/>
<circle cx="2.07447" cy="2.07447" r="2.07447" transform="matrix(1 0 0 -1 56.6063 65)" fill="#D9D9D9"/>
<path d="M7.85632 43.5638H41.3936L54.5319 56.7021H58.335" stroke="#D9D9D9" stroke-width="2"/>
<path d="M-7.35645 38.0317H43.468L55.9148 50.4785H57.2978" stroke="#D9D9D9" stroke-width="2"/>
<circle cx="63.5213" cy="32.5" r="4.14894" fill="#D9D9D9"/>
<path d="M-12.5425 32.5H61.4468" stroke="#D9D9D9" stroke-width="2"/>
</svg>
