<svg width="19" height="19" viewBox="0 0 19 19" fill="none" xmlns="http://www.w3.org/2000/svg">
<g clip-path="url(#clip0_580_1025)">
<path d="M9.79248 18.6162C14.763 18.6162 18.7925 14.5868 18.7925 9.61621C18.7925 4.64565 14.763 0.616211 9.79248 0.616211C4.82192 0.616211 0.79248 4.64565 0.79248 9.61621C0.79248 14.5868 4.82192 18.6162 9.79248 18.6162Z" fill="#F3BA2F"/>
<path d="M7.60773 8.71846L9.79248 6.53371L11.9784 8.71959L13.2496 7.44834L9.79248 3.99121L6.33648 7.44721L7.60773 8.71846ZM4.16748 9.61621L5.43873 8.34496L6.70998 9.61621L5.43873 10.8875L4.16748 9.61621ZM7.60773 10.514L9.79248 12.6987L11.9784 10.5128L13.2496 11.7835L9.79248 15.2412L6.33648 11.7852L6.33479 11.7835L7.60773 10.514ZM12.875 9.61621L14.1462 8.34496L15.4175 9.61621L14.1462 10.8875L12.875 9.61621ZM11.0817 9.61509H11.0829V9.61621L9.79248 10.9066L8.50379 9.61846L8.50154 9.61621L8.50379 9.61452L8.72936 9.3884L8.83904 9.27871L9.79248 8.32584L11.0817 9.61509Z" fill="white"/>
</g>
<defs>
<clipPath id="clip0_580_1025">
<rect width="18" height="18" fill="white" transform="translate(0.79248 0.616211)"/>
</clipPath>
</defs>
</svg>
